<svg width="1200" height="800" viewBox="0 0 1200 800" fill="none" xmlns="http://www.w3.org/2000/svg">
  <defs>
    <radialGradient id="radial1" cx="50%" cy="50%" r="50%">
      <stop offset="0%" style="stop-color:#06B6D4;stop-opacity:0.15" />
      <stop offset="100%" style="stop-color:#3B82F6;stop-opacity:0.05" />
    </radialGradient>
    <linearGradient id="tech-gradient" x1="0%" y1="0%" x2="100%" y2="100%">
      <stop offset="0%" style="stop-color:#8B5CF6;stop-opacity:0.1" />
      <stop offset="100%" style="stop-color:#EC4899;stop-opacity:0.08" />
    </linearGradient>
  </defs>
  
  <!-- Tech grid pattern -->
  <pattern id="grid" width="40" height="40" patternUnits="userSpaceOnUse">
    <path d="M 40 0 L 0 0 0 40" fill="none" stroke="#3B82F6" stroke-width="0.5" opacity="0.1"/>
  </pattern>
  <rect width="100%" height="100%" fill="url(#grid)" />
  
  <!-- Floating tech elements -->
  <g opacity="0.6">
    <!-- Analytics chart -->
    <g transform="translate(100,150)">
      <rect x="0" y="20" width="8" height="30" fill="#3B82F6" opacity="0.7">
        <animate attributeName="height" values="30;50;30" dur="2s" repeatCount="indefinite"/>
      </rect>
      <rect x="15" y="10" width="8" height="40" fill="#8B5CF6" opacity="0.7">
        <animate attributeName="height" values="40;60;40" dur="2.5s" repeatCount="indefinite"/>
      </rect>
      <rect x="30" y="25" width="8" height="25" fill="#EC4899" opacity="0.7">
        <animate attributeName="height" values="25;45;25" dur="1.8s" repeatCount="indefinite"/>
      </rect>
    </g>
    
    <!-- QR Code representation -->
    <g transform="translate(900,100)">
      <rect x="0" y="0" width="60" height="60" fill="none" stroke="#06B6D4" stroke-width="2" opacity="0.5"/>
      <rect x="5" y="5" width="8" height="8" fill="#06B6D4" opacity="0.8"/>
      <rect x="47" y="5" width="8" height="8" fill="#06B6D4" opacity="0.8"/>
      <rect x="5" y="47" width="8" height="8" fill="#06B6D4" opacity="0.8"/>
      <rect x="20" y="20" width="20" height="20" fill="#06B6D4" opacity="0.3">
        <animate attributeName="opacity" values="0.3;0.8;0.3" dur="3s" repeatCount="indefinite"/>
      </rect>
    </g>
    
    <!-- Link chain -->
    <g transform="translate(400,500)" stroke="#8B5CF6" stroke-width="3" fill="none" opacity="0.4">
      <circle cx="0" cy="0" r="15"/>
      <circle cx="40" cy="0" r="15"/>
      <circle cx="80" cy="0" r="15"/>
      <path d="M15,0 L25,0 M55,0 L65,0">
        <animate attributeName="stroke-dasharray" values="0,20;20,0;0,20" dur="2s" repeatCount="indefinite"/>
      </path>
    </g>
  </g>
  
  <!-- Decorative elements -->
  <circle cx="200" cy="600" r="100" fill="url(#radial1)" opacity="0.8">
    <animate attributeName="r" values="100;120;100" dur="4s" repeatCount="indefinite"/>
  </circle>
  
  <ellipse cx="1000" cy="650" rx="80" ry="40" fill="url(#tech-gradient)" opacity="0.6">
    <animateTransform attributeName="transform" type="rotate" values="0 1000 650;360 1000 650" dur="20s" repeatCount="indefinite"/>
  </ellipse>
</svg>